<svg xmlns="http://www.w3.org/2000/svg" viewBox="0 0 100 100">
  <circle cx="50" cy="50" r="50" fill="#00ABBE"/>
  <g fill="#ffffff">
    <path d="M50 50 C50 30 60 17 73 16 C86 15 89 30 79 36 C71 41 58 43 50 50 Z" transform="rotate(0 50 50)"/>
    <path d="M50 50 C50 30 60 17 73 16 C86 15 89 30 79 36 C71 41 58 43 50 50 Z" transform="rotate(120 50 50)"/>
    <path d="M50 50 C50 30 60 17 73 16 C86 15 89 30 79 36 C71 41 58 43 50 50 Z" transform="rotate(240 50 50)"/>
    <circle cx="50" cy="50" r="7"/>
  </g>
</svg>
